<svg width="82" height="83" viewBox="0 0 82 83" fill="none" xmlns="http://www.w3.org/2000/svg">
<path d="M28.8464 83.0001C27.8214 82.1849 28.3339 80.9992 28.1142 79.8876C27.8214 79.8876 27.5285 79.8876 27.2357 79.8876C22.6964 79.8876 18.1571 79.8876 13.5446 79.8876C12.1535 79.8876 11.8607 79.5911 11.8607 78.1831C11.8607 76.1081 11.9339 74.0331 11.8607 71.9581C11.641 67.3635 15.0821 63.6581 19.4017 63.1394C22.0375 62.8429 24.7464 62.917 27.3821 63.1394C29.5053 63.2876 31.2625 64.3992 32.5803 65.8072C34.2642 65.3626 35.8017 64.7697 37.3392 64.6956C39.9017 64.5474 42.4642 64.5474 45.0267 64.7697C46.1982 64.8438 47.2964 65.4367 48.3946 65.8072C48.7607 65.9554 48.9803 65.9554 49.2732 65.659C51.1035 63.8063 53.3732 62.9911 55.9357 62.9911C58.2053 63.0653 60.475 62.917 62.7446 63.2135C66.4785 63.7322 69.9928 67.2153 69.7732 71.884C69.7 74.0331 69.7732 76.1822 69.7732 78.2572C69.7732 79.4429 69.4071 79.8135 68.2357 79.8135C63.6232 79.8135 59.0839 79.8135 54.4714 79.8135C54.1785 79.8135 53.8125 79.8135 53.5196 79.8135C53.2267 80.851 53.8125 82.1108 52.7875 82.926C44.7339 83.0001 36.8267 83.0001 28.8464 83.0001ZM51.1035 80.7028C51.1035 78.4795 51.0303 76.4045 51.1035 74.2554C51.25 70.1795 48.0285 67.2153 44.5875 66.9929C42.025 66.7706 39.4625 66.8447 36.9 66.9929C33.6785 67.2153 30.9696 69.809 30.5303 72.9215C30.3839 73.959 30.4571 74.9965 30.4571 76.1081C30.4571 77.6644 30.4571 79.1465 30.4571 80.7028C37.3392 80.7028 44.1482 80.7028 51.1035 80.7028ZM28.2607 77.5903C28.1142 73.8849 27.9678 70.2536 30.9696 67.4376C29.725 66.1778 28.3339 65.3626 26.7232 65.3626C24.4535 65.2885 22.1839 65.2144 19.9142 65.3626C16.5464 65.5849 14.1303 68.3269 14.1303 71.7358C14.1303 73.1438 14.1303 74.5519 14.1303 75.9599C14.1303 76.4786 14.1303 76.9974 14.1303 77.5903C18.816 77.5903 23.4285 77.5903 28.2607 77.5903ZM53.3 77.5903C58.0589 77.5903 62.7446 77.5903 67.4303 77.5903C67.4303 75.6635 67.4303 73.8108 67.4303 71.9581C67.4303 68.6233 65.6 66.0295 62.3785 65.5849C59.7428 65.2144 56.9607 65.3626 54.2517 65.5108C52.8607 65.5849 51.616 66.4001 50.591 67.5858C53.5928 70.3278 53.4464 73.959 53.3 77.5903Z" fill="#160A54"/>
<path d="M29.5053 0C30.0178 0.444643 30.1642 1.0375 30.1642 1.70446C30.1642 5.03929 30.1642 8.37411 30.1642 11.6348C30.1642 12.8946 29.7982 13.2652 28.5535 13.2652C28.1874 13.2652 27.8214 13.2652 27.3089 13.2652C27.3089 14.1545 27.3089 15.0437 27.3089 15.8589C27.3089 17.7116 26.65 18.0821 25.0392 17.1929C22.9892 16.0071 20.9392 14.7473 18.8892 13.6357C18.5232 13.4134 18.0107 13.3393 17.5714 13.3393C16.1071 13.2652 14.6428 13.3393 13.1785 13.3393C12.0803 13.3393 11.7142 12.9688 11.7142 11.8571C11.7142 8.37411 11.7142 4.96518 11.7142 1.48214C11.7142 0.815179 11.9339 0.444643 12.3732 0C18.0839 0 23.7946 0 29.5053 0ZM27.8214 2.29732C23.1357 2.29732 18.5232 2.29732 13.9839 2.29732C13.9839 5.1875 13.9839 8.07768 13.9839 10.9679C15.3017 10.9679 16.6196 10.8938 17.9374 10.9679C18.5232 10.9679 19.1821 11.1161 19.6946 11.4125C21.3053 12.3018 22.916 13.2652 24.4535 14.1545C24.5999 14.2286 24.8196 14.3027 25.0392 14.4509C25.0392 14.0062 25.0392 13.6357 25.0392 13.2652C25.0392 12.8946 25.0392 12.5241 25.0392 12.1536C25.1124 11.3384 25.4785 10.9679 26.2839 10.8937C26.7964 10.8937 27.3089 10.8937 27.8214 10.8937C27.8214 8.07768 27.8214 5.26161 27.8214 2.29732Z" fill="#160A54"/>
<path d="M48.5411 33.5705C48.5411 36.683 48.5411 39.7955 48.5411 42.908C48.5411 44.2419 48.2482 44.6125 46.9304 44.6125C42.8304 44.6125 38.7304 44.6125 34.6304 44.6125C33.3125 44.6125 33.0196 44.3161 33.0196 42.908C33.0196 39.7955 33.0196 36.683 33.0196 33.4223C32.7268 33.6446 32.5804 33.7928 32.4339 33.9411C31.4821 34.7562 30.6036 35.7196 29.5054 36.4607C27.5286 37.7946 25.625 37.4982 23.9411 35.7937C21.7446 33.5705 19.475 31.2732 17.2786 29.05C16.1071 27.7902 15.5946 26.3821 16.1071 24.6777C16.6929 22.8991 17.8643 21.8616 19.6214 21.5652C21.0125 21.2687 22.2571 21.8616 23.2821 22.825C24.3804 23.9366 25.4786 25.0482 26.5768 26.1598C26.7964 26.3821 26.9429 26.5303 27.2357 26.7527C28.3339 25.5669 29.4321 24.4553 30.5304 23.3437C33.6786 20.083 33.5321 20.1571 38.0714 20.1571C40.6339 20.1571 43.2696 20.1571 45.8321 20.1571C47.2964 20.1571 48.4679 20.6759 49.4929 21.7134C51.1036 23.4178 52.7875 25.0482 54.4714 26.7527C54.6911 26.6044 54.8375 26.4562 54.9839 26.2339C56.1554 25.0482 57.2536 23.8625 58.425 22.7509C60.2554 20.9723 62.6714 21.0464 64.4286 22.825C66.1125 24.6036 66.1857 27.1232 64.4286 28.9018C62.1589 31.2732 59.8161 33.6446 57.4732 35.9419C56.0089 37.35 54.2518 37.7205 52.4946 36.683C51.3232 36.0161 50.3714 34.9785 49.3464 34.1634C49.1268 34.0152 48.9804 33.7187 48.8339 33.4223C48.7607 33.4223 48.6143 33.4964 48.5411 33.5705ZM35.2161 42.2411C38.95 42.2411 42.6107 42.2411 46.3446 42.2411C46.3446 41.8705 46.3446 41.5741 46.3446 41.2036C46.3446 37.7205 46.3446 34.1634 46.3446 30.6803C46.3446 30.0875 46.4911 29.5687 47.0768 29.2723C47.6625 29.05 48.1018 29.3464 48.4679 29.7911C49.2 30.6062 49.9321 31.4955 50.7375 32.3107C51.6161 33.1259 52.4214 33.9411 53.4464 34.608C54.325 35.2009 55.1304 35.1268 55.8625 34.3857C58.2054 32.0143 60.6214 29.6428 62.9643 27.1973C63.6964 26.4562 63.6964 25.4928 63.1107 24.6777C62.3054 23.4919 60.9875 23.3437 59.9625 24.3812C58.4982 25.8634 57.0339 27.3455 55.5696 28.8277C54.7643 29.6428 54.2518 29.6428 53.4464 28.8277C51.6893 27.0491 49.9321 25.3446 48.2482 23.5661C47.2232 22.4544 46.0518 22.2321 44.6607 22.4544C44.4411 23.4178 44.3679 24.3812 43.9286 25.2705C43.6357 25.9375 43.6357 26.4562 43.6357 27.1232C43.8554 29.4205 44.0018 31.7178 44.1482 34.0893C44.1482 34.5339 44.0018 35.0527 43.7821 35.3491C43.1232 36.1643 42.3911 36.9053 41.5857 37.6464C41 38.2393 40.4143 38.2393 39.8286 37.6464C39.0964 36.9794 38.4375 36.2384 37.7786 35.4973C37.4857 35.1268 37.2661 34.6821 37.2661 34.2375C37.2661 33.2 37.4857 32.1625 37.4857 31.0509C37.5589 28.8277 38.2911 26.6786 37.2661 24.4553C36.9732 23.8625 36.9732 23.1214 36.8268 22.4544C35.4357 22.2321 34.2643 22.4544 33.2393 23.5661C31.5554 25.3446 29.7982 27.0491 28.1143 28.8277C27.2357 29.7169 26.7232 29.7169 25.9179 28.8277C24.4536 27.3455 22.9893 25.8634 21.525 24.4553C20.5732 23.4919 19.5482 23.5661 18.5964 24.4553C17.7179 25.3446 17.7179 26.5303 18.6696 27.4937C20.7196 29.6428 22.8429 31.7178 24.9661 33.8669C26.5036 35.4232 27.2357 35.4232 28.9196 34.0893C29.2125 33.8669 29.5054 33.6446 29.7982 33.3482C30.8232 32.2366 31.8482 31.125 32.9464 30.0134C33.3125 29.5687 33.7518 29.1982 34.4107 29.4946C35.0696 29.791 35.1429 30.3098 35.1429 30.9768C35.1429 33.3482 35.1429 35.7196 35.1429 38.0911C35.2161 39.3509 35.2161 40.7589 35.2161 42.2411ZM40.1946 26.7527C40.1214 27.0491 40.1214 27.4196 40.0482 27.7902C39.9018 29.4205 39.9018 31.125 39.6089 32.7553C39.3893 33.9411 39.9018 34.608 40.7071 35.2009C41.8786 34.1634 41.8786 34.1634 41.7321 32.6812C41.5857 31.0509 41.5125 29.3464 41.3661 27.7161C41.3661 26.6044 41.3661 26.5303 40.1946 26.7527ZM42.3179 22.4544C41.2929 22.4544 40.2679 22.4544 39.2429 22.4544C39.3893 23.1214 39.4625 23.7143 39.6089 24.3071C40.4143 24.3071 41.1464 24.3071 41.9518 24.3071C42.025 23.6402 42.1714 23.0473 42.3179 22.4544Z" fill="#160A54"/>
<path d="M32.3607 9.85631C32.3607 5.18756 36.1679 1.40809 40.7804 1.33398C45.3929 1.33398 49.2 5.18755 49.2 9.93041C49.2 14.5992 45.3929 18.4527 40.8536 18.4527C36.0946 18.4527 32.3607 14.5992 32.3607 9.85631ZM46.9304 9.85631C46.9304 6.37327 44.1482 3.5572 40.7071 3.5572C37.2661 3.5572 34.5571 6.37327 34.5571 9.85631C34.5571 13.2652 37.3393 16.0813 40.7071 16.0813C44.1482 16.1554 46.9304 13.3393 46.9304 9.85631Z" fill="#160A54"/>
<path d="M40.8536 48.1697C44.9536 48.2438 48.2482 51.6527 48.2482 55.8027C48.2482 59.9527 44.8071 63.2875 40.7071 63.2134C36.6071 63.1393 33.3125 59.7304 33.3857 55.5804C33.3857 51.5045 36.8268 48.1697 40.8536 48.1697ZM45.9786 55.6545C45.9786 52.8384 43.6357 50.467 40.7804 50.467C37.925 50.467 35.5821 52.8384 35.5821 55.7286C35.5821 58.6188 37.925 60.9902 40.7804 60.9902C43.6357 60.9161 45.9786 58.5447 45.9786 55.6545Z" fill="#160A54"/>
<path d="M30.1642 54.9875C30.1642 58.8411 27.0892 61.8795 23.3553 61.8795C19.5482 61.8795 16.5464 58.767 16.5464 54.9875C16.5464 51.1339 19.6214 48.0214 23.4285 48.0955C27.0892 48.0955 30.1642 51.208 30.1642 54.9875ZM27.8946 54.9875C27.8946 52.4679 25.8446 50.3187 23.3553 50.3187C20.866 50.3187 18.816 52.3937 18.816 54.9875C18.816 57.5812 20.866 59.6562 23.3553 59.6562C25.8446 59.5821 27.8946 57.5071 27.8946 54.9875Z" fill="#160A54"/>
<path d="M65.0142 54.9876C65.0142 58.767 61.9392 61.8795 58.2053 61.8795C54.4714 61.8795 51.3964 58.767 51.3964 54.9134C51.3964 51.134 54.4714 48.0215 58.1321 48.0215C61.9392 48.0215 65.0142 51.134 65.0142 54.9876ZM62.7446 54.9876C62.7446 52.3938 60.7678 50.3188 58.2053 50.3188C55.716 50.3188 53.5928 52.3938 53.5928 54.9134C53.5928 57.5072 55.5696 59.5822 58.1321 59.5822C60.6946 59.6563 62.7446 57.5813 62.7446 54.9876Z" fill="#160A54"/>
<path d="M17.6446 6.66971C17.6446 7.26257 17.1321 7.78132 16.5464 7.78132C15.8874 7.78132 15.3749 7.26257 15.4481 6.5956C15.4481 6.00275 15.9606 5.484 16.6196 5.55811C17.2053 5.55811 17.6446 6.00275 17.6446 6.66971Z" fill="#160A54"/>
<path d="M22.0375 6.66969C22.0375 7.33666 21.525 7.7813 20.9393 7.7813C20.2803 7.7813 19.7678 7.26255 19.7678 6.66969C19.7678 6.07684 20.2803 5.55809 20.866 5.55809C21.525 5.48398 22.0375 6.00273 22.0375 6.66969Z" fill="#160A54"/>
<path d="M25.2589 7.78132C24.6731 7.78132 24.1606 7.26257 24.1606 6.66971C24.1606 6.00275 24.5999 5.55811 25.2589 5.55811C25.9178 5.55811 26.4303 6.07686 26.4303 6.74382C26.4303 7.26257 25.8446 7.78132 25.2589 7.78132Z" fill="#160A54"/>
</svg>
