<svg width="88" height="88" viewBox="0 0 88 88" fill="none" xmlns="http://www.w3.org/2000/svg">
<path d="M40.3856 79.8287C44.157 75.9002 47.7713 72.0502 51.4642 68.2002C57.6713 61.6787 63.7999 55.2359 70.007 48.7144C71.107 47.6144 71.8927 47.5359 72.9927 48.6359C73.6213 49.2644 74.1713 49.893 74.8785 50.6002C76.5285 44.393 78.0999 38.4216 79.6713 32.293C73.6213 33.943 67.6499 35.5144 61.4427 37.1644C62.3856 38.0287 63.1713 38.8144 63.957 39.6002C64.8999 40.543 64.8999 41.2502 64.0356 42.193C56.807 50.2073 49.4999 58.143 42.1927 66.0787C41.2499 67.1002 40.5427 67.1787 39.5213 66.2359C35.4356 62.9359 31.3499 59.5573 27.2642 56.2573C26.9499 56.0216 26.6356 55.7859 26.1642 55.393C26.007 55.6287 25.8499 55.943 25.6142 56.1787C22.4713 59.4787 19.407 62.7787 16.2642 66.0787C15.9499 66.4716 15.3213 66.8644 14.9285 66.8644C14.3785 66.7859 13.8285 66.393 13.4356 65.9216C12.9642 65.3716 13.2785 64.743 13.7499 64.2716C15.007 62.9359 16.3427 61.6002 17.5999 60.1859C17.757 59.9502 17.9927 59.793 18.2285 59.4787C16.107 58.0644 15.7142 56.0216 15.7142 53.6644C15.7927 50.443 15.6356 47.2216 15.7927 44.0002C15.9499 39.7573 17.5999 36.143 20.8213 33.3144C23.1785 31.2716 25.8499 30.8002 28.8356 31.9002C32.9213 33.4716 37.0856 33.4716 41.0927 31.9002C44.4713 30.5644 47.3785 31.2716 49.8927 33.7859C52.7213 36.6144 54.2142 40.1502 54.3713 44.1573C54.4499 45.4144 54.3713 46.7502 54.3713 48.3216C56.6499 45.8073 58.8499 43.4502 61.0499 41.0144C59.9499 39.9144 58.8499 38.8144 57.7499 37.793C56.4927 36.5359 56.807 35.3573 58.5356 34.8859C65.9999 32.843 73.5427 30.8002 81.007 28.8359C81.1642 28.7573 81.3213 28.7573 81.4784 28.6787C82.8927 28.3644 83.8356 29.3073 83.5213 30.7216C82.657 33.943 81.7927 37.0859 81.007 40.3073C79.8284 44.6287 78.7284 49.0287 77.5499 53.3502C77.4713 53.5073 77.4713 53.6644 77.3927 53.8216C76.9999 55.1573 75.6642 55.4716 74.6427 54.6073C73.6213 53.6644 72.757 52.643 71.4999 51.4644C71.3427 51.7787 71.1856 52.093 71.0285 52.3287C61.4427 62.3859 51.857 72.443 42.2713 82.5002C41.0142 83.8359 40.4642 83.8359 39.1285 82.7359C35.357 79.593 31.5856 76.5287 27.4999 73.1502C27.3427 73.3859 27.3427 73.7002 27.107 73.9359C25.1427 76.1359 23.0999 78.3359 21.057 80.5359C20.8999 80.7716 20.6642 80.9287 20.4285 81.1644C19.7999 81.7144 18.9356 81.6359 18.307 81.0859C17.6785 80.5359 17.5999 79.6716 18.2285 79.043C19.5642 77.5502 20.8999 76.0573 22.2356 74.5644C23.4927 73.1502 24.7499 71.8144 26.007 70.4002C26.8713 69.4573 27.657 69.3787 28.6785 70.243C32.2927 73.2287 35.9856 76.293 39.5999 79.2787C39.8356 79.3573 40.0713 79.5144 40.3856 79.8287ZM20.3499 57.2002C21.5285 55.943 22.707 54.6859 23.8856 53.4287C24.1213 53.1144 24.357 52.643 24.357 52.2502C24.4356 50.0502 24.357 47.7716 24.357 45.5716C24.357 44.393 24.907 43.7644 25.9285 43.7644C26.8713 43.7644 27.4999 44.393 27.4999 45.5716C27.4999 47.693 27.4999 49.8144 27.4999 51.9359C27.4999 52.3287 27.7356 52.7216 27.9713 52.9573C31.9785 56.2573 35.9856 59.5573 39.9927 62.8573C40.1499 63.0144 40.3856 63.093 40.5427 63.2502C40.9356 62.7787 41.3285 62.3073 41.7213 61.993C42.3499 61.443 42.5856 60.7359 42.507 59.8716C42.4285 55.1573 42.507 50.5216 42.507 45.8073C42.507 45.493 42.507 45.2573 42.507 44.943C42.5856 44.2359 42.9785 43.6859 43.6856 43.6859C44.2356 43.6859 44.8642 43.9216 45.257 44.2359C45.5713 44.4716 45.6499 45.1002 45.6499 45.5716C45.6499 49.2644 45.6499 52.9573 45.6499 56.6502C45.6499 56.8859 45.6499 57.2002 45.6499 57.5144C45.807 57.4359 45.8856 57.4359 45.9642 57.3573C47.6142 55.5502 49.2642 53.8216 50.9142 52.0144C51.0713 51.7787 51.1499 51.3859 51.1499 51.0716C51.1499 48.8716 51.2285 46.6716 51.1499 44.5502C51.0713 41.4859 50.0499 38.7359 48.007 36.4573C46.2785 34.493 44.5499 34.1002 42.1142 35.043C37.3999 36.7716 32.6856 36.8502 27.9713 35.043C25.457 34.1002 23.6499 34.493 21.8427 36.5359C19.7999 38.8144 18.6999 41.5644 18.6999 44.6287C18.6999 48.0073 18.6999 51.3073 18.6999 54.6859C18.7785 55.7859 19.2499 56.6502 20.3499 57.2002Z" fill="#160A54"/>
<path d="M34.9643 5.10718C41.7214 5.10718 47.4571 10.9215 47.4571 17.7572C47.4571 24.6715 41.7214 30.4858 34.9643 30.4858C28.05 30.4858 22.3143 24.75 22.3143 17.8358C22.2357 10.9215 28.05 5.10718 34.9643 5.10718ZM25.6143 19.0143C25.85 23.4929 30.3285 27.4215 35.1214 27.3429C40.3857 27.2643 44.55 23.1 44.55 17.9143C44.6285 12.7286 40.5428 8.32861 35.5143 8.17146C30.6428 8.01432 25.9286 11.6286 25.6928 15.7929C26.4 15.95 27.1857 16.1072 27.8928 16.1072C30.8785 16.2643 33.3928 15.2429 35.4357 13.0429C36.2214 12.1786 37.1643 12.1 37.8714 12.7286C38.6571 13.4358 38.5785 14.2215 37.7143 15.1643C37.3214 15.5572 36.9285 15.95 36.5357 16.2643C33.3928 19.0143 29.7 19.8 25.6143 19.0143Z" fill="#160A54"/>
<path d="M19.7999 70.4C19.4857 70.95 19.3285 71.4214 19.0142 71.7357C15.3214 75.4286 11.6285 79.2 7.93566 82.8928C7.14995 83.6786 6.20709 83.6785 5.49994 83.05C4.87137 82.4214 4.94994 81.4785 5.65709 80.6928C9.34995 77 13.0428 73.3071 16.7357 69.5357C17.2857 68.9857 17.9142 68.75 18.5428 69.1428C19.0928 69.3786 19.4071 69.9285 19.7999 70.4Z" fill="#160A54"/>
</svg>
