<svg width="88" height="88" viewBox="0 0 88 88" fill="none" xmlns="http://www.w3.org/2000/svg">
<path d="M71.3914 27.568C70.7316 27.8453 70.094 28.1396 69.4849 28.4949L69.4848 28.4949L69.4776 28.4991C66.3274 30.3723 64.2047 33.101 62.9428 36.466L62.9211 36.5238L62.9067 36.5837C62.4757 38.3799 62.1485 40.2646 62.3235 42.2441H62.313H62.2991H62.2852H62.2713H62.2574H62.2435H62.2296H62.2157H62.2019H62.188H62.1741H62.1602H62.1463H62.1324H62.1186H62.1047H62.0908H62.0769H62.0631H62.0492H62.0353H62.0214H62.0076H61.9937H61.9798H61.966H61.9521H61.9383H61.9244H61.9105H61.8967H61.8828H61.869H61.8551H61.8413H61.8274H61.8136H61.7997H61.7859H61.772H61.7582H61.7444H61.7305H61.7167H61.7028H61.689H61.6752H61.6613H61.6475H61.6337H61.6199H61.606H61.5922H61.5784H61.5645H61.5507H61.5369H61.5231H61.5093H61.4954H61.4816H61.4678H61.454H61.4402H61.4264H61.4126H61.3988H61.3849H61.3711H61.3573H61.3435H61.3297H61.3159H61.3021H61.2883H61.2745H61.2607H61.2469H61.2331H61.2193H61.2055H61.1917H61.1779H61.1642H61.1504H61.1366H61.1228H61.109H61.0952H61.0814H61.0676H61.0539H61.0401H61.0263H61.0125H60.9987H60.985H60.9712H60.9574H60.9436H60.9299H60.9161H60.9023H60.8885H60.8748H60.861H60.8472H60.8335H60.8197H60.8059H60.7922H60.7784H60.7646H60.7509H60.7371H60.7234H60.7096H60.6958H60.6821H60.6683H60.6546H60.6408H60.627H60.6133H60.5995H60.5858H60.572H60.5583H60.5445H60.5308H60.517H60.5033H60.4895H60.4758H60.462H60.4483H60.4345H60.4208H60.407H60.3933H60.3796H60.3658H60.3521H60.3383H60.3246H60.3109H60.2971H60.2834H60.2696H60.2559H60.2422H60.2284H60.2147H60.2009H60.1872H60.1735H60.1597H60.146H60.1323H60.1185H60.1048H60.0911H60.0774H60.0636H60.0499H60.0362H60.0224H60.0087H59.995H59.9812H59.9675H59.9538H59.9401H59.9263H59.9126H59.8989H59.8852H59.8714H59.8577H59.844H59.8303H59.8165H59.8028H59.7891H59.7754H59.7617H59.7479H59.7342H59.7205H59.7068H59.693H59.6793H59.6656H59.6519H59.6382H59.6244H59.6107H59.597H59.5833H59.5696H59.5559H59.5421H59.5284H59.5147H59.501H59.4873H59.4736H59.4598H59.4461H59.4324H59.4187H59.405H59.3913H59.3775H59.3638H59.3501H59.3364H59.3227H59.309H59.2952H59.2815H59.2678H59.2541H59.2404H59.2267H59.213H59.1992H59.1855H59.1718H59.1581H59.1444H59.1307H59.1169H59.1032H59.0895H59.0758H59.0621H59.0484H59.0347H59.0209H59.0072H58.9935H58.9798H58.9661H58.9524H58.9387H58.9249H58.9112H58.8975H58.8838H58.8701H58.8564H58.8426H58.8289H58.8152H58.8015H58.7878H58.774H58.7603H58.7466H58.7329H58.7192H58.7055H58.6917H58.678H58.6643H58.6506H58.6369H58.6231H58.6094H58.5957H58.582H58.5683H58.5545H58.5408H58.5271H58.5134H58.4996H58.4859H58.4722H58.4585H58.4447H58.431H58.4173H58.4036H58.3898H58.3761H58.3624H58.3487H58.3349H58.3212H58.3075H58.2938H58.28H58.2663H58.2526H58.2388H58.2251H58.2114H58.1976H58.1839H58.1702H58.1564H58.1427H58.129H58.1152H58.1015H58.0878H58.074H58.0603H58.0466H58.0328H58.0191H58.0053H57.9916H57.9779H57.9641H57.9504H57.9366H57.9229H57.9091H57.8954H57.8817H57.8679H57.8542H57.8404H57.8267H57.8129H57.7992H57.7854H57.7717H57.7579H57.7442H57.7304H57.7167H57.7029H57.6891H57.6754H57.6616H57.6479H57.6341H57.6204H57.6066H57.5928H57.5791H57.5653H57.5516H57.5378H57.524H57.5103H57.4965H57.4827H57.469H57.4552H57.4414H57.4276H57.4139H57.4001H57.3863H57.3726H57.3588H57.345H57.3312H57.3174H57.3037H57.2899H57.2761H57.2623H57.2485H57.2348H57.221H57.2072H57.1934H57.1796H57.1658H57.152H57.1382H57.1244H57.1107H57.0969H57.0831H57.0693H57.0555H57.0417H57.0279H57.0141H57.0003H56.9865H56.9727H56.9589H56.9451H56.9312H56.9174H56.9036H56.8898H56.876H56.8622H56.8484H56.8346H56.8207H56.8069H56.7931H56.7793H56.7655H56.7516H56.7378H56.724H56.7102H56.6963H56.6825H56.6687H56.6548H56.641H56.6272H56.6133H56.5995H56.5857H56.5718H56.558H56.5441H56.5303H56.5165H56.5026H56.4888H56.4749H56.4611H56.4472H56.4334H56.4195H56.4056H56.3918H56.3779H56.3641H56.3502H56.3363H56.3225H56.3086H56.2947H56.2809H56.267H56.2531H56.2393H56.2254H56.2115H56.1976H56.1837H56.1699H56.156H56.1421H56.1282H56.1143H56.1004H56.0865H56.0727H56.0588H56.0449H56.031H56.0171H56.0032H55.9893H55.9754H55.9615H55.9476H55.9336H55.9197H55.9058H55.8919H55.878H55.8641H55.8502H55.8362H55.8223H55.8084H55.7945H55.7805H55.7666H55.7527H55.7388H55.7248H55.7109H55.6969H55.683H55.6691H55.6551H55.6412H55.6272C54.67 42.2441 53.8376 42.2436 52.9332 42.1682L52.8917 42.1647H52.8501H52.8467C46.0746 42.1647 39.2197 42.1647 32.4372 42.2398C32.7163 36.5597 34.8348 31.6375 38.7366 27.5094C40.5565 25.6142 42.5971 24.1021 44.86 22.9667C44.943 22.9315 45.0025 22.9081 45.0478 22.8924C45.0577 22.9016 45.0689 22.9123 45.0813 22.9247C47.0701 24.9135 49.649 26.1105 52.2931 26.5372C56.9346 27.2964 61.288 26.1926 64.9381 22.9669L64.9612 22.9465L64.983 22.9247C64.9859 22.9217 64.9888 22.9189 64.9916 22.9162C65.0261 22.9275 65.0715 22.9444 65.1306 22.9692C67.4755 24.1139 69.4668 25.6947 71.3914 27.568ZM32.4259 42.716C32.4258 42.7161 32.4256 42.714 32.4253 42.7094C32.4258 42.7137 32.426 42.716 32.4259 42.716ZM62.4125 42.9929C62.4123 42.9926 62.4118 42.9882 62.4118 42.9802L62.4119 42.9809C62.4127 42.9893 62.4127 42.9931 62.4125 42.9929Z" stroke="#160A54" stroke-width="2"/>
<path d="M55.151 22.4871C49.287 22.4871 44.4773 17.7049 44.3284 11.7255C44.2595 6.01826 49.1257 1.07342 54.8458 1.0008C61.0348 0.928263 65.8182 5.79777 65.894 11.5915C65.8907 17.6352 61.0898 22.4871 55.151 22.4871Z" stroke="#160A54" stroke-width="2"/>
<path d="M76.7993 30.2552L76.7995 30.2552C82.8899 30.4074 87.4996 34.9598 87.4996 40.943C87.4996 46.8558 82.6454 51.71 76.7326 51.71C70.8244 51.71 66.0449 46.8604 66.0449 40.943C66.0449 34.9437 70.824 30.1039 76.7993 30.2552ZM75.1407 45.6181L75.1473 45.6128L75.1537 45.6073C76.2663 44.6536 77.3588 43.7002 78.4493 42.7485L78.4499 42.7479C79.5412 41.7956 80.6305 40.8449 81.7394 39.8944C82.0182 39.6554 82.3168 39.3966 82.614 39.139L82.6142 39.1389C82.912 38.8808 83.2085 38.6238 83.485 38.3869L83.4995 38.3744L83.5131 38.3608C83.8212 38.0527 84.0105 37.6809 84.0262 37.2727C84.0418 36.8661 83.8827 36.4913 83.623 36.1796C83.3587 35.8624 83.0106 35.6435 82.602 35.5963C82.1974 35.5496 81.8005 35.679 81.4473 35.9295C81.1715 36.1143 80.9833 36.3025 80.7571 36.5288L80.7539 36.532C79.7281 37.4393 78.6825 38.3468 77.6347 39.2562L77.634 39.2569C76.5835 40.1685 75.531 41.0821 74.498 41.9958C74.4022 42.0796 74.3292 42.1336 74.2758 42.1674C74.2506 42.1188 74.2206 42.0509 74.1856 41.9576L74.1857 41.9576L74.1842 41.9537C73.7816 40.907 73.3006 39.8647 72.822 38.9069C72.6739 38.567 72.455 38.2742 72.1307 38.0889C71.8108 37.906 71.4468 37.8613 71.0674 37.9042C70.6543 37.9109 70.2788 38.0485 70.0113 38.3495C69.7453 38.6487 69.6469 39.0412 69.6469 39.4354C69.6469 39.652 69.7159 39.8628 69.7819 40.0278C69.8484 40.1942 69.9345 40.3665 70.0098 40.5173C70.6441 42.0231 71.2809 43.4557 71.9981 44.8906C72.1637 45.2419 72.3384 45.5475 72.5381 45.7843C72.7417 46.0258 72.9932 46.2212 73.3117 46.2987C73.6311 46.3764 73.9454 46.3178 74.2399 46.1921C74.5294 46.0685 74.828 45.8682 75.1407 45.6181Z" stroke="#160A54"/>
<path d="M22.1421 81.8947L22.1421 81.8948L22.1447 81.8994C22.4189 82.3869 22.4471 82.7469 22.398 82.9636C22.356 83.1493 22.2319 83.3535 21.8793 83.518L21.8293 83.5414L21.7822 83.57C19.9771 84.6688 18.1699 85.6905 16.3468 86.721C15.9112 86.951 15.5892 86.9713 15.3802 86.9222C15.1861 86.8765 14.9623 86.7422 14.7598 86.3878L14.7598 86.3878L14.7544 86.3785C11.5046 80.83 8.25452 75.2019 5.08338 69.6524C4.30223 68.2368 3.48102 66.8335 2.67432 65.4549C2.17002 64.5931 1.67139 63.741 1.19176 62.9016C0.985212 62.5401 0.971959 62.2571 1.02997 62.0458C1.08977 61.828 1.26046 61.5611 1.64825 61.3093C2.97083 60.5046 4.32918 59.7455 5.68632 58.9872C6.17548 58.7138 6.66449 58.4405 7.15161 58.1653C7.56423 57.9476 7.86751 57.9397 8.08006 58.001C8.29701 58.0636 8.56716 58.2412 8.82634 58.6714C9.49381 59.8102 10.1426 60.9701 10.7971 62.1403L10.7996 62.1447C11.4514 63.31 12.1089 64.4855 12.7871 65.6427C14.1372 68.0251 15.5067 70.387 16.8733 72.744L16.8747 72.7463C18.2431 75.1063 19.6086 77.4614 20.954 79.8354C21.1576 80.2019 21.3605 80.5468 21.5566 80.8801L21.5592 80.8846C21.7584 81.2233 21.9506 81.5501 22.1421 81.8947ZM4.42784 64.1623L4.45091 64.2085L4.47861 64.252C4.73989 64.6626 4.98501 65.0958 5.24516 65.556L5.25126 65.5668C5.50332 66.0128 5.77003 66.4847 6.0595 66.9403C6.56903 67.7755 7.55316 68.0457 8.41558 67.7583C8.86335 67.609 9.22815 67.3305 9.48329 66.938C9.72381 66.568 9.83464 66.147 9.88508 65.7434L9.92264 65.443L9.78723 65.1722C9.70725 65.0122 9.62576 64.8425 9.5409 64.6657C9.08939 63.7251 8.54215 62.585 7.61628 61.6591C7.20346 61.2463 6.66962 61.1323 6.21754 61.1716C5.77266 61.2103 5.35095 61.3959 5.01495 61.6647L4.9717 61.6993L4.93254 61.7385C4.67459 61.9964 4.40653 62.3379 4.2814 62.7759C4.14579 63.2505 4.20953 63.7257 4.42784 64.1623Z" stroke="#160A54" stroke-width="2"/>
<path d="M83.9437 63.7929L83.934 63.7983L83.9245 63.8039C79.7238 66.2608 75.4433 68.7182 71.2415 71.0965L71.2343 71.1006L71.2271 71.1049C70.3163 71.6406 69.3618 72.1714 68.3928 72.7103C66.5858 73.7151 64.7284 74.748 63.0094 75.8937C60.0334 77.8528 57.0136 78.155 53.5322 77.118L53.5322 77.118L53.5242 77.1157C49.088 75.8341 44.6071 74.6404 40.1264 73.4468C37.3907 72.718 34.6551 71.9893 31.9297 71.2406L31.9059 71.234L31.8817 71.2286C31.025 71.0383 30.1713 71.0081 29.2337 71.5929C27.2789 72.7957 25.249 73.9285 23.1957 75.0694L16.3548 63.2117C16.3381 63.1543 16.3152 63.093 16.2835 63.0296C16.2197 62.902 16.1436 62.8143 16.1088 62.7757C16.1071 62.7737 16.1053 62.7718 16.1036 62.7698C15.9041 62.4646 15.7153 62.1391 15.5107 61.7856L15.5034 61.773C15.3671 61.5376 15.2234 61.2894 15.0707 61.0409C17.9245 59.4039 20.7605 57.767 23.5952 56.1308L23.5954 56.1307C26.5511 54.4248 29.5053 52.7196 32.4791 51.0147C33.8906 50.2084 35.3462 50.0693 36.9174 50.545C36.9648 50.5604 37.0084 50.5729 37.0454 50.583C37.0691 50.5894 37.0927 50.5956 37.1132 50.6009L37.2446 50.7978L37.6368 50.885C38.1197 50.9923 38.5849 51.0876 39.0374 51.1802C39.9919 51.3756 40.8896 51.5594 41.7769 51.8203L41.7768 51.8204L41.7843 51.8225C42.3597 51.9869 42.9518 52.1298 43.5202 52.267L43.5303 52.2694C44.1093 52.4092 44.6641 52.5433 45.1961 52.6953L45.1961 52.6953L45.2043 52.6976C47.0735 53.2146 48.9419 53.7115 50.8048 54.207L50.8077 54.2077C52.6709 54.7033 54.5286 55.1974 56.3855 55.7109C57.3739 55.9994 58.0484 56.5851 58.3962 57.2665C58.7421 57.9442 58.8024 58.7877 58.4325 59.682C58.1149 60.4434 57.6585 60.9087 57.137 61.153C56.6091 61.4002 55.904 61.4724 55.0052 61.2393L55.0009 61.2382C50.6549 60.132 46.3076 58.9465 41.9506 57.7583C41.8181 57.715 41.6735 57.6737 41.551 57.6387L41.5403 57.6356C41.3958 57.5943 41.2794 57.5609 41.1851 57.5294L41.1486 57.5173L41.1114 57.508C40.6226 57.3858 40.0544 57.3894 39.5396 57.6682C39.0034 57.9587 38.6744 58.4669 38.5438 59.0546C38.443 59.5083 38.3972 60.0953 38.6751 60.6511C38.971 61.2428 39.5179 61.577 40.1297 61.7439L40.1296 61.7439L40.1403 61.7467L42.8778 62.4608L45.6152 63.175L45.6152 63.175L45.6206 63.1764C49.6681 64.2081 53.6951 65.2347 57.7194 66.4181C61.019 67.4321 64.18 67.3666 67.3282 65.4458C69.6286 64.0973 71.9157 62.7568 74.2008 61.496L74.2074 61.4924L74.2139 61.4887C75.3273 60.8524 76.4601 60.1966 77.59 59.5424L77.591 59.5419C78.7102 58.8939 79.8265 58.2476 80.9233 57.6207C82.1077 57.0733 83.3717 57.3226 84.3665 58.0468C85.3928 58.794 85.9736 59.9288 85.893 60.9282C85.7675 62.2287 85.1141 63.1427 83.9437 63.7929ZM23.4353 75.4806C23.4353 75.4807 23.4347 75.48 23.4337 75.4786C23.4347 75.4799 23.4353 75.4806 23.4353 75.4806ZM22.7372 75.32C22.7317 75.3227 22.7291 75.3237 22.7292 75.3236C22.7293 75.3234 22.732 75.3221 22.7372 75.32ZM14.8189 60.6445C14.8189 60.6445 14.8194 60.6453 14.8202 60.647C14.8192 60.6453 14.8189 60.6444 14.8189 60.6445Z" stroke="#160A54" stroke-width="2"/>
<path d="M70.1472 39.4354C70.1472 38.8006 70.4646 38.4039 71.02 38.3246C71.5754 38.2452 72.0515 38.4832 72.2895 39.0387C72.7656 40.0702 73.2417 41.0223 73.6384 42.0538C73.8764 42.7679 74.1145 42.8472 74.7492 42.2918C76.8122 40.4669 78.9545 38.6419 81.0175 36.817C81.2555 36.6583 81.4142 36.4203 81.6523 36.2616C82.2077 35.8649 82.6838 35.9442 83.1598 36.4203C83.5566 36.8963 83.5566 37.4518 83.0805 37.9278C82.5251 38.4832 81.9697 38.9593 81.3349 39.4354C79.1132 41.3397 76.9709 43.244 74.7492 45.1482C73.5591 46.1797 73.0036 46.021 72.3689 44.5928C71.7341 43.1646 71.0994 41.6571 70.3853 40.2288C70.3059 39.9908 70.1472 39.6734 70.1472 39.4354Z" fill="#FEFEFE"/>
</svg>
