<svg width="131" height="137" viewBox="0 0 131 137" fill="none" xmlns="http://www.w3.org/2000/svg">
<circle cx="65.5" cy="66.5" r="65" fill="#04642D" stroke="#04642D"/>
<path d="M35.1494 59.9212C35.6211 51.0365 38.8444 43.3763 45.0812 37.0058C46.0508 36.0157 47.3218 35.9245 48.2127 36.7713C49.1168 37.6311 49.0906 38.8948 48.0948 39.8849C44.2426 43.8062 41.6221 48.4049 40.2988 53.7332C39.7222 56.0651 39.4602 58.4231 39.434 60.8201C39.4209 61.8363 38.7657 62.67 37.8617 62.8915C36.9445 63.113 35.8963 62.7222 35.5425 61.8623C35.2935 61.2761 35.2673 60.5726 35.1494 59.9212Z" fill="white"/>
<path d="M96.7318 59.7125C96.7318 60.1424 96.7449 60.5462 96.7318 60.9631C96.6794 62.0314 95.8802 62.8651 94.8451 62.9433C93.7444 63.0215 92.7748 62.344 92.6307 61.2627C92.4866 60.1684 92.5128 59.0611 92.408 57.9538C91.7528 51.3227 89.1323 45.5646 84.625 40.6402C84.4023 40.4057 84.1795 40.1712 83.9437 39.9367C82.961 38.8945 82.9086 37.6048 83.8126 36.758C84.7036 35.9242 85.9615 36.0154 86.9442 37.0055C88.8179 38.8945 90.4557 40.9789 91.8315 43.2587C94.8975 48.3264 96.5091 53.824 96.7318 59.7125Z" fill="white"/>
<path d="M64.867 99.7854C64.3822 99.6812 63.8843 99.59 63.4126 99.4597C59.508 98.3524 56.9792 95.8511 55.8655 91.9689C55.7345 91.539 55.5641 91.4347 55.1579 91.4478C51.1223 91.4608 47.0736 91.4608 43.038 91.4478C40.3651 91.4347 38.3211 89.5979 38.0721 86.9663C37.928 85.3509 38.5176 83.97 39.7492 82.9147C41.6491 81.2733 43.2083 79.3713 44.3614 77.1436C45.7765 74.3817 46.4316 71.4636 46.4316 68.363C46.4185 65.3927 46.3006 62.3964 46.5364 59.4391C47.0998 52.4303 50.6244 47.2193 56.7565 43.754C58.9446 42.5164 61.3293 41.852 63.9105 41.5263C63.9105 41.2658 63.9105 41.0052 63.9105 40.7577C63.9105 39.0641 63.9629 37.3705 63.8974 35.6769C63.845 34.4133 64.3167 33.5404 65.5221 33.0845C65.8759 33.0845 66.2166 33.0845 66.5703 33.0845C67.7758 33.6316 68.1689 34.5957 68.1296 35.8724C68.064 37.7353 68.1165 39.5982 68.1165 41.4481C69.2695 41.7087 70.3832 41.8911 71.4576 42.2037C79.162 44.4184 84.7961 51.1015 85.4381 59.0483C85.6871 62.1489 85.5561 65.2885 85.5692 68.4151C85.5823 72.9226 86.958 76.9481 89.8406 80.4265C90.6268 81.3775 91.5702 82.2113 92.4481 83.0711C93.9549 84.5432 94.4134 86.7188 93.5094 88.5817C92.6184 90.4316 91.0985 91.4217 89.0283 91.4347C85.032 91.4608 81.0357 91.4478 77.0393 91.4478C76.8035 91.4478 76.5677 91.4478 76.2925 91.4478C76.227 91.6953 76.1746 91.9298 76.096 92.1513C74.7464 96.3331 71.9293 98.8604 67.5792 99.6681C67.4613 99.6942 67.3434 99.7463 67.2255 99.7854C66.4393 99.7854 65.6532 99.7854 64.867 99.7854ZM65.9545 87.279C73.5278 87.279 81.1012 87.279 88.6876 87.279C89.12 87.279 89.631 87.279 89.6834 86.7839C89.7227 86.4843 89.4869 86.0413 89.2379 85.8199C83.9575 81.0779 81.3632 75.1764 81.3763 68.1155C81.3763 65.7445 81.4156 63.3865 81.3632 61.0155C81.337 59.9212 81.2715 58.7878 81.0357 57.7195C79.2144 49.4731 71.4707 44.3663 63.0981 45.8514C56.4813 47.0239 51.1223 52.8863 50.7293 59.5564C50.5589 62.4746 50.6244 65.4188 50.6244 68.35C50.6375 73.4698 49.1831 78.1206 46.0909 82.1982C45.0689 83.5401 43.7849 84.6735 42.658 85.9371C42.4615 86.1586 42.2649 86.5885 42.3567 86.81C42.4484 87.0314 42.8808 87.1487 43.169 87.2659C43.3001 87.318 43.4704 87.279 43.6276 87.279C51.0699 87.279 58.5122 87.279 65.9545 87.279ZM60.1763 91.4738C60.6611 93.8188 63.5829 95.7469 66.3869 95.6035C68.8764 95.4733 71.6149 93.3889 71.7983 91.4738C67.933 91.4738 64.0546 91.4738 60.1763 91.4738Z" fill="white"/>
</svg>
