<?xml version="1.0" encoding="utf-8"?>
<!-- Generator: Adobe Illustrator 27.8.1, SVG Export Plug-In . SVG Version: 6.00 Build 0)  -->
<svg version="1.1" id="Artwork" xmlns="http://www.w3.org/2000/svg" xmlns:xlink="http://www.w3.org/1999/xlink" x="0px" y="0px"
	 viewBox="-37.5 454 1012.9 170.5" style="enable-background:new -37.5 454 1012.9 170.5;" xml:space="preserve">
<style type="text/css">
	.st0{clip-path:url(#XMLID_00000052793898806038599670000006831479171226667666_);}
	.st1{clip-path:url(#XMLID_00000093161378338105938740000009931594569116094907_);}
	.st2{clip-path:url(#XMLID_00000036248437097551413650000002967955089173601694_);}
	.st3{clip-path:url(#XMLID_00000086681912589393961920000002735089193455895963_);fill:url(#SVGID_1_);}
	.st4{display:none;}
	.st5{display:inline;}
	.st6{fill:#FFFFFF;}
</style>
<g>
	<defs>
		<path id="XMLID_104_" d="M752.2,520.9c-2.1,0-3.7,1.7-3.7,3.8c0,0.6,0.1,1.1,0.3,1.6l-2.3,2.1h-28.2v2.9H747c0.4,0,0.7-0.2,1-0.4
			l2.8-2.7c0,0,0,0,0.1,0c0.4,0.1,0.8,0.2,1.2,0.2c2.1,0,3.8-1.7,3.8-3.8C755.9,522.5,754.2,520.9,752.2,520.9z M752.2,525.4
			c-0.4,0-0.8-0.4-0.8-0.8c0-0.4,0.3-0.8,0.8-0.8s0.8,0.4,0.8,0.8C753,525,752.7,525.4,752.2,525.4z"/>
	</defs>
	<defs>
		<path id="XMLID_100_" d="M770.2,537.4c-0.7-0.6-1.5-0.9-2.4-0.9c-1.6,0-2.9,0.9-3.5,2.3h-11.6l-2.4-2.3l2.4-2.4h5.4
			c0.6,1.3,1.9,2.3,3.4,2.3c2.1,0,3.8-1.7,3.8-3.8s-1.7-3.8-3.8-3.8c-1.5,0-2.9,0.9-3.4,2.3h-6c-0.5,0-0.8,0.2-1.1,0.5l-3.4,3.4
			h-29.4v2.9h29.5l3.5,3.3c0.3,0.3,0.6,0.4,1,0.4h12.1c0.6,1.3,1.9,2.3,3.5,2.3h0.2c2-0.1,3.6-1.7,3.6-3.7
			C771.6,539.1,771.1,538.1,770.2,537.4z M761.7,531.7c0.4,0,0.8,0.3,0.8,0.8c0,0.4-0.4,0.8-0.8,0.8c-0.4,0-0.8-0.4-0.8-0.8
			S761.2,531.7,761.7,531.7z M767.8,541c-0.5,0-0.8-0.3-0.8-0.8s0.3-0.8,0.8-0.8c0.4,0,0.8,0.3,0.8,0.8
			C768.7,540.7,768.2,541,767.8,541z"/>
	</defs>
	<defs>
		<circle id="XMLID_20_" cx="756.1" cy="547.4" r="0.8"/>
	</defs>
	<defs>
		<path id="XMLID_96_" d="M756.1,543.6c-1.5,0-2.9,0.9-3.4,2.3h-6.9l-3.6-4c-0.3-0.3-0.7-0.5-1.1-0.5h-22.8v2.9h22.2l3.7,4
			c0.3,0.3,0.7,0.5,1.1,0.5l0,0h7.5c0.6,1.3,1.9,2.3,3.4,2.3c2.1,0,3.8-1.7,3.8-3.7C759.8,545.3,758.2,543.6,756.1,543.6z
			 M756.1,548.2c-0.4,0-0.8-0.3-0.8-0.8s0.4-0.8,0.8-0.8s0.8,0.3,0.8,0.8C756.9,547.8,756.5,548.2,756.1,548.2z"/>
	</defs>
	
		<linearGradient id="XMLID_00000096031624232251081440000006323625912137336765_" gradientUnits="userSpaceOnUse" x1="718.25" y1="526.1" x2="755.95" y2="526.1">
		<stop  offset="0" style="stop-color:#A3CB9A"/>
		<stop  offset="0.9731" style="stop-color:#4F9975"/>
	</linearGradient>
	<use xlink:href="#XMLID_104_"  style="overflow:visible;fill:url(#XMLID_00000096031624232251081440000006323625912137336765_);"/>
	
		<linearGradient id="XMLID_00000154423445508604607840000004569451667081365681_" gradientUnits="userSpaceOnUse" x1="718.25" y1="536.35" x2="771.65" y2="536.35">
		<stop  offset="0" style="stop-color:#A3CB9A"/>
		<stop  offset="0.9731" style="stop-color:#4F9975"/>
	</linearGradient>
	<use xlink:href="#XMLID_100_"  style="overflow:visible;fill:url(#XMLID_00000154423445508604607840000004569451667081365681_);"/>
	
		<linearGradient id="XMLID_00000107566926627696388160000013032770842830568121_" gradientUnits="userSpaceOnUse" x1="755.2501" y1="547.4" x2="756.85" y2="547.4">
		<stop  offset="0" style="stop-color:#A3CB9A"/>
		<stop  offset="0.9731" style="stop-color:#4F9975"/>
	</linearGradient>
	<use xlink:href="#XMLID_20_"  style="overflow:visible;fill:url(#XMLID_00000107566926627696388160000013032770842830568121_);"/>
	
		<linearGradient id="XMLID_00000160872562578997524280000007128078562647737242_" gradientUnits="userSpaceOnUse" x1="718.2501" y1="546.25" x2="759.9501" y2="546.25">
		<stop  offset="0" style="stop-color:#A3CB9A"/>
		<stop  offset="0.9731" style="stop-color:#4F9975"/>
	</linearGradient>
	<use xlink:href="#XMLID_96_"  style="overflow:visible;fill:url(#XMLID_00000160872562578997524280000007128078562647737242_);"/>
	<clipPath id="XMLID_00000044875163484868914090000008128403694152346015_">
		<use xlink:href="#XMLID_104_"  style="overflow:visible;"/>
	</clipPath>
	
		<clipPath id="XMLID_00000036972357096489051260000008091153160649614487_" style="clip-path:url(#XMLID_00000044875163484868914090000008128403694152346015_);">
		<use xlink:href="#XMLID_100_"  style="overflow:visible;"/>
	</clipPath>
	
		<clipPath id="XMLID_00000017479535043385295140000016385525752913705404_" style="clip-path:url(#XMLID_00000036972357096489051260000008091153160649614487_);">
		<use xlink:href="#XMLID_20_"  style="overflow:visible;"/>
	</clipPath>
	
		<clipPath id="XMLID_00000075149830290116697440000008304617473959737222_" style="clip-path:url(#XMLID_00000017479535043385295140000016385525752913705404_);">
		<use xlink:href="#XMLID_96_"  style="overflow:visible;"/>
	</clipPath>
	<linearGradient id="SVGID_1_" gradientUnits="userSpaceOnUse" x1="721.15" y1="560.4" x2="776.15" y2="560.4">
		<stop  offset="0" style="stop-color:#A3CB9A"/>
		<stop  offset="0.9731" style="stop-color:#4F9975"/>
	</linearGradient>
	
		<rect x="721.2" y="540.7" style="clip-path:url(#XMLID_00000075149830290116697440000008304617473959737222_);fill:url(#SVGID_1_);" width="55" height="39.5"/>
</g>
<g id="Tagline" class="st4">
	<path id="XMLID_2_" class="st5" d="M-2.8,1220.3h-12.4v-20h12.4v2.2h-9.9v6.4h9.4v2.2h-9.4v6.9h9.9L-2.8,1220.3z"/>
	<path id="XMLID_4_" class="st5" d="M1.6,1205.9h2.3v2.3H4c0.8-1.6,2.3-2.5,4.6-2.5c3.2,0,5,2,5,5.3v9.3H11v-8.9
		c0-2.3-1.1-3.6-3.3-3.6c-2.3,0-3.8,1.6-3.8,4v8.5H1.5L1.6,1205.9L1.6,1205.9L1.6,1205.9z"/>
	<path id="XMLID_6_" class="st5" d="M17.8,1221.5h2.5c0.5,1.3,1.9,2.2,3.7,2.2c2.5,0,4-1.4,4-3.6v-2.3h-0.1
		c-0.9,1.6-2.6,2.6-4.6,2.6c-3.7,0-6.1-2.9-6.1-7.4s2.4-7.4,6.1-7.4c2,0,3.7,1,4.7,2.7l0,0v-2.4h2.3v14.1c0,3.4-2.5,5.7-6.5,5.7
		C20.7,1225.7,18.2,1224,17.8,1221.5z M28,1213.1c0-3.2-1.7-5.3-4.2-5.3s-4.1,2-4.1,5.3c0,3.2,1.6,5.2,4.1,5.2S28,1216.2,28,1213.1z
		"/>
	<path id="XMLID_10_" class="st5" d="M34.8,1202c0-0.8,0.7-1.5,1.5-1.5s1.5,0.7,1.5,1.5s-0.7,1.5-1.5,1.5S34.8,1202.8,34.8,1202z
		 M35.1,1205.9h2.4v14.4h-2.4V1205.9z"/>
	<path id="XMLID_13_" class="st5" d="M42.2,1205.9h2.3v2.3h0.1c0.8-1.6,2.3-2.5,4.6-2.5c3.2,0,5,2,5,5.3v9.3h-2.4v-8.9
		c0-2.3-1.1-3.6-3.3-3.6c-2.3,0-3.8,1.6-3.8,4v8.5h-2.4L42.2,1205.9L42.2,1205.9L42.2,1205.9z"/>
	<path id="XMLID_15_" class="st5" d="M70.5,1216.2c-0.4,2.5-2.9,4.4-6,4.4c-4.1,0-6.6-2.9-6.6-7.4s2.5-7.5,6.5-7.5
		c3.9,0,6.3,2.8,6.3,7.2v0.9H60.4v0.1c0,2.8,1.6,4.6,4.2,4.6c1.8,0,3.2-0.9,3.6-2.3H70.5L70.5,1216.2z M60.4,1211.9h7.8
		c-0.1-2.4-1.6-4.1-3.8-4.1C62.1,1207.8,60.5,1209.5,60.4,1211.9z"/>
	<path id="XMLID_18_" class="st5" d="M86.4,1216.2c-0.4,2.5-2.9,4.4-6,4.4c-4.1,0-6.6-2.9-6.6-7.4s2.5-7.5,6.5-7.5
		c3.9,0,6.3,2.8,6.3,7.2v0.9H76.3v0.1c0,2.8,1.6,4.6,4.2,4.6c1.8,0,3.2-0.9,3.6-2.3H86.4L86.4,1216.2z M76.3,1211.9h7.8
		c-0.1-2.4-1.6-4.1-3.8-4.1C78,1207.8,76.5,1209.5,76.3,1211.9z"/>
	<path id="XMLID_28_" class="st5" d="M90.5,1205.9h2.3v2.4h0.1c0.5-1.6,1.8-2.6,3.5-2.6c0.4,0,0.8,0.1,1,0.1v2.3
		c-0.2-0.1-0.7-0.1-1.3-0.1c-1.9,0-3.1,1.3-3.1,3.4v9h-2.4L90.5,1205.9L90.5,1205.9L90.5,1205.9z"/>
	<path id="XMLID_32_" class="st5" d="M100.5,1202c0-0.8,0.7-1.5,1.5-1.5s1.5,0.7,1.5,1.5s-0.7,1.5-1.5,1.5S100.5,1202.8,100.5,1202z
		 M100.8,1205.9h2.4v14.4h-2.4V1205.9z"/>
	<path id="XMLID_35_" class="st5" d="M107.9,1205.9h2.3v2.3h0.1c0.8-1.6,2.3-2.5,4.6-2.5c3.2,0,5,2,5,5.3v9.3h-2.4v-8.9
		c0-2.3-1.1-3.6-3.3-3.6c-2.3,0-3.8,1.6-3.8,4v8.5H108v-14.4L107.9,1205.9L107.9,1205.9z"/>
	<path id="XMLID_45_" class="st5" d="M124.1,1221.5h2.5c0.5,1.3,1.9,2.2,3.7,2.2c2.5,0,4-1.4,4-3.6v-2.3h-0.1
		c-0.9,1.6-2.6,2.6-4.6,2.6c-3.7,0-6.1-2.9-6.1-7.4s2.4-7.4,6.1-7.4c2,0,3.7,1,4.7,2.7l0,0v-2.4h2.3v14.1c0,3.4-2.5,5.7-6.5,5.7
		C127,1225.7,124.5,1224,124.1,1221.5z M134.3,1213.1c0-3.2-1.7-5.3-4.2-5.3s-4.1,2-4.1,5.3c0,3.2,1.6,5.2,4.1,5.2
		S134.3,1216.2,134.3,1213.1z"/>
	<path id="XMLID_53_" class="st5" d="M148.7,1225.6v-2c0.3,0.1,0.6,0.1,0.9,0.1c1.3,0,2.1-0.7,2.6-2.3l0.3-1l-5.3-14.4h2.6l4,12l0,0
		l4-12h2.5l-5.7,15.4c-1.2,3.4-2.4,4.4-5,4.4C149.4,1225.7,148.9,1225.7,148.7,1225.6z"/>
	<path id="XMLID_55_" class="st5" d="M162.6,1213.1c0-4.6,2.7-7.4,6.7-7.4s6.7,2.9,6.7,7.4c0,4.6-2.7,7.5-6.7,7.5
		S162.6,1217.7,162.6,1213.1z M173.5,1213.1c0-3.4-1.7-5.3-4.2-5.3s-4.2,1.9-4.2,5.3s1.7,5.3,4.2,5.3S173.5,1216.5,173.5,1213.1z"/>
	<path id="XMLID_58_" class="st5" d="M191.6,1220.3h-2.3v-2.3h-0.1c-0.9,1.7-2.4,2.6-4.6,2.6c-3.1,0-5-2-5-5.3v-9.3h2.4v8.9
		c0,2.3,1.1,3.6,3.3,3.6c2.3,0,3.8-1.6,3.8-4.1v-8.5h2.4v14.4H191.6L191.6,1220.3z"/>
	<path id="XMLID_60_" class="st5" d="M196.2,1205.9h2.3v2.4h0.1c0.5-1.6,1.8-2.6,3.5-2.6c0.4,0,0.8,0.1,1,0.1v2.3
		c-0.2-0.1-0.7-0.1-1.3-0.1c-1.9,0-3.1,1.3-3.1,3.4v9h-2.4v-14.5L196.2,1205.9L196.2,1205.9z"/>
	<path id="XMLID_62_" class="st5" d="M212.9,1213.1c0-4.5,2.5-7.4,6.1-7.4c2.1,0,3.7,1,4.6,2.6h0.1v-7.9h2.4v20h-2.3v-2.4l0,0
		c-0.9,1.7-2.6,2.7-4.7,2.7C215.4,1220.6,212.9,1217.6,212.9,1213.1z M215.3,1213.1c0,3.3,1.6,5.3,4.2,5.3c2.5,0,4.1-2.1,4.1-5.3
		s-1.7-5.3-4.1-5.3C217,1207.8,215.3,1209.9,215.3,1213.1z"/>
	<path id="XMLID_65_" class="st5" d="M230.6,1202c0-0.8,0.7-1.5,1.5-1.5s1.5,0.7,1.5,1.5s-0.7,1.5-1.5,1.5
		C231.2,1203.5,230.6,1202.8,230.6,1202z M230.9,1205.9h2.4v14.4h-2.4V1205.9z"/>
	<path id="XMLID_68_" class="st5" d="M237.8,1221.5h2.5c0.5,1.3,1.9,2.2,3.7,2.2c2.5,0,4-1.4,4-3.6v-2.3h-0.1
		c-0.9,1.6-2.6,2.6-4.6,2.6c-3.7,0-6.1-2.9-6.1-7.4s2.4-7.4,6.1-7.4c2,0,3.7,1,4.7,2.7l0,0v-2.4h2.3v14.1c0,3.4-2.5,5.7-6.5,5.7
		C240.7,1225.7,238.2,1224,237.8,1221.5z M248,1213.1c0-3.2-1.7-5.3-4.2-5.3s-4.1,2-4.1,5.3c0,3.2,1.6,5.2,4.1,5.2
		S248,1216.2,248,1213.1z"/>
	<path id="XMLID_71_" class="st5" d="M254.8,1202c0-0.8,0.7-1.5,1.5-1.5s1.5,0.7,1.5,1.5s-0.7,1.5-1.5,1.5S254.8,1202.8,254.8,1202z
		 M255.1,1205.9h2.4v14.4h-2.4V1205.9z"/>
	<path id="XMLID_74_" class="st5" d="M265.4,1202.4v3.5h2.8v2h-2.8v8.6c0,1.3,0.6,1.9,1.8,1.9c0.3,0,0.8,0,1-0.1v2
		c-0.3,0.1-1,0.1-1.5,0.1c-2.6,0-3.7-1.1-3.7-3.8v-8.7h-2.1v-2h2.1v-3.5H265.4z"/>
	<path id="XMLID_76_" class="st5" d="M271.3,1216.2c0-2.5,1.9-4,5.2-4.2l4.1-0.2v-1.2c0-1.8-1.2-2.8-3.2-2.8c-1.9,0-3,0.9-3.3,2.3
		h-2.3c0.2-2.5,2.3-4.4,5.7-4.4c3.4,0,5.5,1.8,5.5,4.7v10h-2.3v-2.5h-0.1c-0.9,1.6-2.7,2.7-4.6,2.7
		C273.2,1220.6,271.3,1218.8,271.3,1216.2z M280.6,1214.8v-1.2l-3.8,0.2c-1.9,0.1-3,1-3,2.3c0,1.4,1.2,2.3,2.9,2.3
		C278.9,1218.5,280.6,1216.9,280.6,1214.8z"/>
	<path id="XMLID_79_" class="st5" d="M287.7,1200.3h2.4v20h-2.4V1200.3z"/>
	<path id="XMLID_81_" class="st5" d="M302.8,1207.9h-2v-2h2v-1.6c0-2.8,1.3-4.1,3.9-4.1c0.5,0,1.1,0.1,1.5,0.1v2
		c-0.3,0-0.7-0.1-1.1-0.1c-1.3,0-1.9,0.7-1.9,2.1v1.6h2.9v2h-2.9v12.4h-2.4V1207.9z"/>
	<path id="XMLID_83_" class="st5" d="M323.9,1220.3h-2.3v-2.3h-0.1c-0.9,1.7-2.4,2.6-4.6,2.6c-3.1,0-5-2-5-5.3v-9.3h2.4v8.9
		c0,2.3,1.1,3.6,3.3,3.6c2.3,0,3.8-1.6,3.8-4.1v-8.5h2.4v14.4H323.9L323.9,1220.3z"/>
	<path id="XMLID_86_" class="st5" d="M331.6,1202.4v3.5h2.8v2h-2.8v8.6c0,1.3,0.6,1.9,1.8,1.9c0.3,0,0.8,0,1-0.1v2
		c-0.3,0.1-1,0.1-1.5,0.1c-2.6,0-3.7-1.1-3.7-3.8v-8.7h-2.1v-2h2.1v-3.5H331.6z"/>
	<path id="XMLID_88_" class="st5" d="M350.2,1220.3h-2.3v-2.3h-0.1c-0.9,1.7-2.4,2.6-4.6,2.6c-3.1,0-5-2-5-5.3v-9.3h2.4v8.9
		c0,2.3,1.1,3.6,3.3,3.6c2.3,0,3.8-1.6,3.8-4.1v-8.5h2.4v14.4H350.2L350.2,1220.3z"/>
	<path id="XMLID_90_" class="st5" d="M354.8,1205.9h2.3v2.4h0.1c0.5-1.6,1.8-2.6,3.5-2.6c0.4,0,0.8,0.1,1,0.1v2.3
		c-0.2-0.1-0.7-0.1-1.3-0.1c-1.9,0-3.1,1.3-3.1,3.4v9h-2.4v-14.5L354.8,1205.9L354.8,1205.9z"/>
	<path id="XMLID_92_" class="st5" d="M376.2,1216.2c-0.4,2.5-2.9,4.4-6,4.4c-4.1,0-6.6-2.9-6.6-7.4s2.5-7.5,6.5-7.5
		c3.9,0,6.3,2.8,6.3,7.2v0.9H366v0.1c0,2.8,1.6,4.6,4.2,4.6c1.8,0,3.2-0.9,3.6-2.3H376.2L376.2,1216.2z M366,1211.9h7.8
		c-0.1-2.4-1.6-4.1-3.8-4.1C367.8,1207.8,366.2,1209.5,366,1211.9z"/>
</g>
<g id="Ashrei_Tech">
	<path id="XMLID_22_" class="st6" d="M-9,459H2.7c4,0,6.5,2.1,7,6.1l22.6,157.3h-17L-0.1,503.6l-15.4,118.8h-17L-9,459z"/>
	<path id="XMLID_24_" class="st6" d="M126.9,578v22.7c0,15.2-8.2,23.3-23.3,23.3h-4.7c-15.2,0-23.3-8.2-23.3-23.3V582
		c0-3.7,1.6-6.3,5.1-7.7l11.2-4.4v30.8c0,6.1,3.3,9.3,9.3,9.3c6.1,0,9.3-3.3,9.3-9.3v-22.6c0-23.8-35-68.9-35-91.3v-6.1
		c0-15.2,8.2-23.3,23.3-23.3h4.7c15.2,0,23.3,8.2,23.3,23.3v8.4c0,3.7-1.6,6.3-5.1,7.7l-11.2,4.4v-20.5c0-6.1-3.3-9.3-9.3-9.3
		c-6.1,0-9.3,3.3-9.3,9.3v6C91.9,508.7,126.9,549.5,126.9,578z"/>
	<path id="XMLID_26_" class="st6" d="M188.3,459h9.8v70.5h18.7V459h9.8c4.2,0,6.5,2.3,6.5,6.5v156.9h-16.3v-78.5h-18.7v78.4h-16.3
		V465.5C181.7,461.3,184.1,459,188.3,459z"/>
	<path id="XMLID_29_" class="st6" d="M347.5,482.3v38.3c0,6.8-2.6,12.1-7.2,16.1c4.7,4,7.2,9.3,7.2,16.1v69.6h-9.8
		c-4.2,0-6.5-2.3-6.5-6.5v-62.6c0-6.1-3.3-9.3-9.3-9.3h-9.3v78.4h-16.3V459h28C339.3,459,347.5,467.1,347.5,482.3z M321.8,529.5
		c6.1,0,9.3-3.3,9.3-9.3v-37.4c0-6.1-3.3-9.3-9.3-9.3h-9.3v56H321.8L321.8,529.5z"/>
	<path id="XMLID_38_" class="st6" d="M412.4,459h42.4l-3.7,9.3c-1.4,3.5-4,5.1-7.7,5.1h-21.2v56h25.9l-3.7,9.3
		c-1.4,3.5-4,5.1-7.7,5.1h-14.5v64h35.2l-3.7,9.3c-1.4,3.5-4,5.1-7.7,5.1h-40.2V465.5C405.8,461.3,408.2,459,412.4,459z"/>
	<path id="XMLID_40_" class="st6" d="M518.1,465.5v156.9h-16.3V459h9.8C515.8,459,518.1,461.3,518.1,465.5z"/>
	<path id="XMLID_42_" class="st6" d="M666.7,473.4h-16.3v148.9h-16.3V473.4h-25.3v-7.9c0-4.2,2.3-6.5,6.5-6.5h62.8l-3.7,9.3
		C673,471.8,670.5,473.4,666.7,473.4z"/>
	<path id="XMLID_44_" class="st6" d="M729.5,607.9V473.5h21.3c3.7,0,6.3-1.7,7.7-5.1l3.7-9.3h-42.5c-4.2,0-6.5,2.3-6.5,6.5v156.9
		h40.2c3.7,0,6.3-1.6,7.7-5.1l3.7-9.3h-35.3L729.5,607.9L729.5,607.9z"/>
	<path id="XMLID_47_" class="st6" d="M850.4,572.4l11.2-4.4v32.7c0,15.2-8.2,23.3-23.3,23.3h-4.7c-15.2,0-23.3-8.2-23.3-23.3v-120
		c0-15.2,8.2-23.3,23.3-23.3h4.7c15.2,0,23.3,8.2,23.3,23.3v20.5c0,3.7-1.6,6.3-5.1,7.7l-11.2,4.4v-32.6c0-6.1-3.3-9.3-9.3-9.3
		c-6.1,0-9.3,3.3-9.3,9.3v120c0,6.1,3.3,9.3,9.3,9.3c6.1,0,9.3-3.3,9.3-9.3v-20.5C845.2,576.4,846.9,573.8,850.4,572.4z"/>
	<path id="XMLID_49_" class="st6" d="M925.4,459h9.8v70.5h18.6V459h9.8c4.2,0,6.5,2.3,6.5,6.5v156.9h-16.3v-78.5H935v78.4h-16.3
		V465.5C918.8,461.3,921.2,459,925.4,459z"/>
</g>
<g id="XMLID_201_">
	<path id="XMLID_202_" d="M440.3,683.1l0.9-3.9l0.2,0.9c-0.3,0-0.6-0.1-0.8-0.3c-0.2-0.2-0.3-0.5-0.3-0.8s0.1-0.6,0.3-0.8
		c0.2-0.2,0.5-0.3,0.8-0.3s0.6,0.1,0.8,0.3c0.2,0.2,0.3,0.5,0.3,0.8c0,0.1,0,0.2,0,0.3s0,0.2-0.1,0.4c0,0.1-0.1,0.3-0.2,0.5
		l-0.9,2.9L440.3,683.1L440.3,683.1z"/>
</g>
</svg>
